<?xml version="1.0" encoding="utf-8"?>
<!-- Generator: Adobe Illustrator 24.3.0, SVG Export Plug-In . SVG Version: 6.00 Build 0)  -->
<svg version="1.2" baseProfile="tiny" xmlns="http://www.w3.org/2000/svg" xmlns:xlink="http://www.w3.org/1999/xlink" x="0px"
	 y="0px" viewBox="0 0 32.01 32.01" overflow="visible" xml:space="preserve">
<g id="Fondos">
</g>
<g id="Variaciones__Cromaticas">
</g>
<g id="Logo_Final">
</g>
<g id="Colores">
</g>
<g id="Textos">
	<g>
		<path fill="#91161C" d="M1.79,28.8c0.55-2.15,3.06-3.17,5.08-2.95c1.89,0.22,3.53,1.09,5.28,1.75c2.31,0.84,4.97,0.89,7.35,0.07
			c3.64-1.31,4.02-4.53,2.66-5.57c-1.95-1.51-4.86,0.91-3.71,3.33c-2.33-2.4,0.11-5.88,3.17-5.33c3.84,0.71,3.53,5.39,0.82,7.21
			c-1.78,1.22-3.97,1.62-6.08,1.82c-3.93,0.36-6.48-1.09-9.01-1.38c-3.33-0.49-5.1,2.26-3.31,4.24C2.43,32.22,1.41,30.24,1.79,28.8z
			 M21.28,25.14c0.75-0.91,0.24-2.44-0.95-1.73c-0.16,0.09-0.31,0.2-0.49,0.13c-0.53-0.24-0.27-0.75,0.2-0.93
			c1.89-0.69,2.69,1.33,1.89,2.51c-2.49,3.64-9.17,2.15-12.56,0.55C13.06,27.11,18.79,28.18,21.28,25.14z M24.95,21.82
			c-0.4-1.44-2-2.55-3.44-2.75c1.2-0.16,2.91,0.24,4.04,2.2c0.98,1.69,0.04,3.48-1.62,3.44C24.86,24.02,25.26,22.89,24.95,21.82z"/>
	</g>
	<path d="M24.2,15.35l0.43-0.23c2.65-1.44,5.37-5.72,5.66-8.09c0.08-0.66-0.18-1.25-0.47-1.55c-0.13-0.13-0.27-0.21-0.39-0.22
		c-0.07-0.08-0.24-0.28-0.38-0.37c-0.06-0.33-0.17-0.71-0.32-1.1c0.03,0.05,0.06,0.1,0.09,0.15c0.09,0.16,0.19,0.31,0.26,0.48
		c-0.03-0.19-0.09-0.36-0.16-0.54c-0.04-0.09-0.07-0.17-0.11-0.26c-0.04-0.08-0.08-0.17-0.12-0.25c-0.09-0.16-0.18-0.33-0.27-0.49
		c-0.09-0.16-0.19-0.32-0.29-0.47l0,0c-0.25-0.48-0.51-0.93-0.75-1.27c-0.09-0.12-0.18-0.23-0.28-0.34c0.01,0,0.02,0.01,0.04,0.01
		c0.1,0.04,0.21,0.09,0.31,0.15c0.1,0.06,0.19,0.12,0.28,0.2c-0.07-0.09-0.16-0.17-0.25-0.25c-0.09-0.08-0.18-0.15-0.28-0.21
		c-0.1-0.06-0.2-0.12-0.32-0.17c-0.05-0.02-0.1-0.04-0.16-0.06c-0.11-0.07-0.22-0.14-0.34-0.2c0.08,0,0.16,0.01,0.23,0.03
		c0.1,0.02,0.2,0.05,0.3,0.08c0.1,0.03,0.2,0.07,0.3,0.1c-0.09-0.05-0.18-0.1-0.28-0.14c-0.09-0.05-0.19-0.09-0.29-0.12
		c-0.19-0.07-0.4-0.11-0.62-0.09c-0.4-0.12-0.85-0.16-1.31-0.08c-0.88,0.13-1.4,0.8-1.54,0.99c-0.25-0.04-1.29-0.2-1.84-0.17
		c-0.66,0.04-1.08,0.38-1.43,0.75l-0.21,0.22l0.3-0.08c0.01,0,0.54-0.13,0.86-0.05c0.61,0.16,1.78,0.72,2.17,0.91
		c-0.23,0.16-0.72,0.51-0.89,0.69c-0.21,0.23-0.55,0.39-0.76,0.42l-0.37,0.05l0.35,0.12c0.36,0.13,0.79,0.11,1.27-0.06
		c0.28-0.1,0.76-0.23,1.13-0.22c-0.02,0.01-0.04,0.01-0.07,0.02c-0.11,0.04-0.22,0.08-0.32,0.13c-0.1,0.05-0.2,0.11-0.29,0.18
		c0.1-0.05,0.21-0.07,0.31-0.1c0.11-0.02,0.21-0.03,0.32-0.04c0.01,0,0.02,0,0.03,0c-0.11,0.06-0.21,0.13-0.29,0.22
		c0.13-0.05,0.27-0.07,0.4-0.08c0.01,0,0.03,0,0.04,0c-0.07,0.25-0.19,0.56-0.31,0.7c-1.28-0.58-3.83,0.08-5.14,1.03
		c-1.21,0.88-1.86,1.54-2.11,2.13c-0.11,0.09-0.3,0.24-0.53,0.42c-0.7,0.56-1.77,1.4-2.36,1.93l0,0l-0.38,0.29
		c-0.13,0.1-0.26,0.19-0.39,0.29c-0.13,0.09-0.26,0.18-0.4,0.26c-0.14,0.08-0.28,0.16-0.43,0.23c0.16-0.02,0.32-0.07,0.48-0.13
		c0.15-0.06,0.3-0.13,0.45-0.22c0.02-0.01,0.05-0.03,0.07-0.04c-0.26,0.33-0.6,0.67-1.92,1.44c0,0,0,0,0,0
		c-0.26,0.14-0.53,0.29-0.79,0.45c-0.26,0.16-0.52,0.32-0.77,0.48c-0.25,0.17-0.5,0.34-0.75,0.52c-0.24,0.18-0.48,0.37-0.71,0.57
		c0.25-0.17,0.51-0.33,0.76-0.49c0.2-0.12,0.4-0.24,0.61-0.36C8.67,14,8.1,14.5,7.79,14.78c-0.48,0.43-0.94,0.86-1.28,1.21
		C5.96,16.56,5.98,16.61,6,16.67c0.02,0.04,0.05,0.07,0.1,0.09c0.04,0.01,0.09,0.01,0.14,0c-0.22,0.26-0.45,0.59-0.42,0.74
		c0.01,0.05,0.04,0.08,0.08,0.11c0.12,0.06,0.38,0,0.59-0.07c-0.08,0.13-0.14,0.3-0.06,0.42c0.08,0.13,0.29,0.13,0.49,0.1
		c-0.09,0.08-0.21,0.17-0.35,0.28C6.16,18.68,5.98,18.86,6.05,19c0.06,0.12,0.24,0.14,0.96-0.07c0.96-0.28,1.74-0.81,2.49-1.33
		c0.17-0.12,0.35-0.24,0.53-0.35c-0.29,0.3-0.66,0.65-1.01,0.98c-1,0.94-1.24,1.2-1.17,1.34c0.02,0.05,0.06,0.08,0.11,0.1
		c0.17,0.05,0.5-0.09,0.69-0.19c0.01,0.07,0.03,0.14,0.09,0.22c0.02,0.03,0.07,0.07,0.14,0.08c0.33,0.04,1.02-0.47,1.47-0.83
		c0.03,0.04,0.06,0.05,0.08,0.07c0.14,0.06,0.32-0.03,0.43-0.13c0.03-0.02,0.06-0.05,0.1-0.08c0.12-0.09,0.31-0.24,0.52-0.45
		c-0.05,0.15-0.05,0.29,0.02,0.36c0.03,0.03,0.08,0.06,0.16,0.05c0.3-0.03,0.76-0.59,0.97-0.87c0.01,0.01,0.02,0.01,0.04,0.01
		c0.08,0.02,0.16-0.01,0.25-0.1c0.11-0.1,0.52-0.73,1.08-1.62c0.18-0.29,0.36-0.57,0.49-0.76l-1.1,2.06l1.42-2.25
		c0.08,0,0.16-0.01,0.25-0.01c-0.02,0.04-0.03,0.08-0.05,0.12c-0.04,0.09-0.09,0.17-0.14,0.25c-0.1,0.17-0.21,0.33-0.32,0.49
		c0.14-0.14,0.28-0.28,0.41-0.43c0.06-0.08,0.13-0.15,0.19-0.24c0.05-0.07,0.1-0.14,0.13-0.23c0.53-0.07,1.16-0.2,1.5-0.28
		c0.3,0.66,1.05,1.35,1.52,1.74c0,0.02,0.01,0.03,0.01,0.05c0.02,0.08,0.05,0.16,0.1,0.22c-0.02-0.06-0.02-0.13-0.02-0.19
		c0.03,0.02,0.06,0.05,0.08,0.07c0.01,0.03,0.01,0.06,0.02,0.09c0.02,0.08,0.05,0.16,0.1,0.22c-0.02-0.08-0.02-0.15-0.02-0.23
		c0.02,0.01,0.03,0.02,0.04,0.03c0.07,0.36,0.2,0.77,0.29,1.05c0.03,0.09,0.05,0.17,0.07,0.22c0.04,0.14,0.09,0.26,0.14,0.35
		c0.03,0.07,0.06,0.13,0.07,0.17c0.02,0.06,0.02,0.1,0.02,0.17c0,0.05,0,0.12,0.01,0.22c0.01,0.15,0.05,0.26,0.08,0.35
		c0.01,0.03,0.02,0.07,0.03,0.09c-0.02,0.05-0.13,0.21-0.18,0.24c-0.01,0.01-0.02,0.01-0.04,0.01c-0.04,0.01-0.09,0.01-0.15,0.06
		c-0.04,0.04-0.07,0.09-0.09,0.12c-0.01,0.02-0.02,0.04-0.03,0.05c-0.01,0-0.02,0-0.03,0c-0.09-0.01-0.25-0.03-0.4,0.16
		c-0.13,0.15-0.11,0.25-0.1,0.33c0.01,0.04,0.01,0.08-0.01,0.13c-0.07,0.2-0.09,0.33,0,0.59l0.02,0.06
		c0.01-0.01,0.01-0.02,0.02-0.04c0.02-0.03,0.04-0.05,0.06-0.08c0.02-0.02,0.03-0.03,0.05-0.05c0.01-0.02,0.02-0.04,0.04-0.05
		c0.05-0.25,0.17-0.4,0.39-0.48c0.16-0.06,0.29-0.05,0.42-0.05c0.06,0,0.12,0,0.17,0c0.01,0.09,0.05,0.18,0.11,0.26
		c0.04,0.05,0.08,0.09,0.12,0.11c-0.01,0.22,0.08,0.33,0.21,0.43l0.04,0.88l0.15-0.31c0.01-0.01,0.13-0.28,0.17-0.5
		c0.16-0.15,0.3-0.36,0.21-0.64c0.04,0.01,0.08,0.01,0.12,0.01c0.05,0.02,0.16,0.07,0.19,0.16c0.02,0.06,0.02,0.16,0.02,0.26
		c0,0.15,0.01,0.31,0.06,0.44l0.09,0.21l0.08-0.21c0.04-0.12,0.24-0.67,0.27-0.94c0.04,0,0.08-0.01,0.12-0.01
		c0.04,0.12,0.1,0.32,0.16,0.51l0.08,0.25l0.09-0.25c0.23-0.65-0.02-0.93-0.11-1.01c0,0-0.01-0.01-0.01-0.01
		c-0.01-0.01-0.01-0.02-0.02-0.02c-0.05-0.07-0.14-0.18-0.35-0.21c-0.13-0.02-0.28,0.04-0.4,0.09c-0.06,0.02-0.14,0.06-0.16,0.05
		c-0.05-0.01-0.09-0.05-0.16-0.13c-0.02-0.03-0.05-0.05-0.07-0.08c-0.05-0.05-0.1-0.09-0.16-0.13c-0.04-0.03-0.1-0.07-0.1-0.08
		c0-0.01,0-0.05,0-0.08c0-0.09,0-0.23-0.07-0.37c-0.05-0.09-0.14-0.21-0.23-0.32c-0.07-0.09-0.15-0.19-0.17-0.23
		c-0.02-0.05-0.03-0.11-0.04-0.18c-0.01-0.08-0.02-0.17-0.06-0.27c-0.03-0.09-0.07-0.16-0.11-0.23c-0.05-0.09-0.1-0.18-0.11-0.29
		c-0.01-0.11-0.05-0.26-0.07-0.38c-0.03-0.11-0.05-0.23-0.05-0.28c0-0.07-0.02-0.17-0.04-0.3c-0.01-0.03-0.01-0.07-0.02-0.11
		c0.03,0.04,0.05,0.08,0.08,0.12c0.05,0.07,0.11,0.14,0.19,0.18c-0.05-0.07-0.08-0.15-0.1-0.23c-0.02-0.08-0.04-0.16-0.05-0.24
		c-0.01-0.07-0.01-0.15-0.01-0.22c0.02,0.04,0.05,0.08,0.07,0.11c0.06,0.08,0.12,0.15,0.21,0.2c-0.06-0.07-0.09-0.16-0.11-0.24
		c-0.02-0.06-0.03-0.13-0.03-0.2c0.16-0.14,0.34-0.28,0.47-0.38c0.04-0.03,0.08-0.06,0.11-0.08c0.16,0.54,0.5,0.73,0.67,0.79
		c0.01,0.02,0.02,0.04,0.03,0.05c0.04,0.07,0.09,0.14,0.16,0.19c-0.04-0.07-0.06-0.14-0.07-0.21l0.11,0.02
		c0.02,0.05,0.04,0.09,0.07,0.14c0.04,0.07,0.09,0.14,0.16,0.19c-0.04-0.07-0.06-0.14-0.07-0.22c0-0.01,0-0.03,0-0.04
		c0.02,0.01,0.03,0.02,0.05,0.03c0.02,0.02,0.05,0.03,0.05,0.04c0.05,0.05,0.27,0.35,0.41,0.57c0.05,0.08,0.1,0.15,0.15,0.23
		c0.1,0.15,0.21,0.31,0.24,0.4c0.03,0.1,0.11,0.2,0.18,0.29c0.03,0.04,0.08,0.1,0.09,0.12c0,0.01,0,0.03,0,0.05
		c0.01,0.08,0.02,0.2,0.08,0.3c0.01,0.2-0.1,0.23-0.14,0.24c-0.11,0.03-0.2,0.09-0.27,0.17c0.12-0.02,0.24-0.01,0.37,0.02
		c0.04,0,0.08,0,0.11,0.01c0.06,0.01,0.12,0.03,0.17,0.06c0.15,0.02,0.3,0.07,0.41,0.19c0.01,0.01,0.01,0.02,0.02,0.03
		c0.04,0.04,0.1,0.08,0.15,0.1c0.01,0.06,0.04,0.15,0.1,0.28c0.08,0.18,0.18,0.23,0.25,0.26c0.03,0.01,0.04,0.02,0.04,0.02
		c0.02,0.04,0.01,0.1,0.01,0.15c0,0.05,0,0.11,0.01,0.16c0.02,0.1,0.11,0.25,0.22,0.34c0.01,0.08,0.01,0.29,0,0.45l-0.03,0.39
		l0.19-0.34c0.34-0.6,0.32-0.83,0.25-1.06c-0.06-0.19-0.17-0.27-0.24-0.31c-0.01-0.01-0.03-0.02-0.03-0.02
		c-0.01-0.01-0.02-0.05-0.03-0.1c0.02,0.03,0.05,0.06,0.09,0.1c0.07,0.06,0.16,0.11,0.23,0.14c0.03,0.01,0.06,0.03,0.07,0.04
		c0,0.01,0.01,0.03,0.01,0.04c0.01,0.06,0.04,0.14,0.1,0.23c0.07,0.1,0.15,0.12,0.21,0.13c0.04,0.01,0.07,0.02,0.12,0.05
		c0.09,0.06,0.11,0.38,0.05,0.5l-0.19,0.32l0.31-0.21c0.32-0.21,0.36-0.62,0.33-0.81c0.06-0.16,0.01-0.33-0.07-0.45
		c0.11,0.08,0.27,0.17,0.48,0.18c0.2,0.01,0.27-0.06,0.33-0.13c0.04-0.04,0.06-0.07,0.18-0.08c0.1-0.01,0.19,0.02,0.26,0.09
		c0.08,0.08,0.11,0.19,0.11,0.26l-0.02,0.34l0.18-0.29c0.1-0.16,0.11-0.33,0.04-0.49c-0.08-0.2-0.28-0.35-0.42-0.39
		c-0.13-0.03-0.21,0-0.27,0.02c-0.03,0.01-0.05,0.02-0.06,0.01c-0.03-0.01-0.05-0.02-0.09-0.04c-0.06-0.04-0.15-0.09-0.29-0.12
		c-0.16-0.04-0.31-0.01-0.41,0.01c-0.03,0.01-0.06,0.01-0.07,0.01c-0.01,0-0.03-0.02-0.06-0.03c-0.07-0.03-0.17-0.09-0.34-0.13
		c-0.17-0.04-0.28-0.03-0.35-0.02c-0.03,0-0.05,0.01-0.07,0c-0.02-0.01-0.05-0.02-0.08-0.03c-0.07-0.03-0.15-0.06-0.22-0.06
		c-0.05-0.05-0.16-0.17-0.32-0.29c-0.14-0.11-0.27-0.17-0.39-0.23c-0.07-0.03-0.14-0.07-0.22-0.11c-0.13-0.08-0.18-0.15-0.24-0.23
		c-0.03-0.04-0.06-0.09-0.1-0.14c-0.08-0.09-0.13-0.12-0.18-0.13c-0.02-0.01-0.03-0.01-0.05-0.04c-0.05-0.06-0.14-0.21-0.22-0.35
		c-0.05-0.08-0.1-0.16-0.13-0.22c-0.09-0.14-0.26-0.49-0.32-0.63c-0.02-0.04-0.03-0.08-0.05-0.12c0.01,0.01,0.02,0.02,0.03,0.03
		c0.07,0.05,0.15,0.1,0.23,0.13c-0.07-0.05-0.11-0.12-0.16-0.19c-0.04-0.07-0.08-0.15-0.11-0.22c-0.03-0.07-0.05-0.14-0.07-0.21
		c0.03,0.03,0.06,0.06,0.1,0.09c0.08,0.06,0.16,0.12,0.25,0.14c-0.08-0.06-0.13-0.13-0.17-0.21c0-0.01-0.01-0.02-0.01-0.02
		c0.01,0,0.02-0.01,0.02-0.01c0.05-0.02,0.1-0.09,0.19-0.2c0.06-0.08,0.14-0.17,0.24-0.27c0.13-0.04,0.39-0.18,0.62-0.31
		c-0.03,0.02-0.06,0.05-0.09,0.08l-0.26,0.22l0.33-0.06c0.14-0.03,0.57-0.28,0.96-0.58c-0.14,0.18-0.29,0.35-0.38,0.42l-0.37,0.27
		l0.44-0.12c0.45-0.12,0.95-0.5,1.35-0.86c-0.12,0.16-0.26,0.33-0.43,0.52L24.2,15.35z M7.74,15.3c0.17-0.14,0.34-0.27,0.51-0.4
		c0.17-0.13,0.34-0.26,0.52-0.39c0.35-0.26,0.72-0.5,1.09-0.74c0.19-0.12,0.38-0.23,0.57-0.34c0.2-0.11,0.4-0.21,0.61-0.3
		c-0.34,0.27-0.68,0.53-1.03,0.79c-0.35,0.26-0.7,0.51-1.05,0.77c-0.18,0.13-0.35,0.25-0.53,0.38L7.9,15.44
		c-0.36,0.25-0.72,0.5-1.09,0.73C7.09,15.86,7.41,15.58,7.74,15.3z M11.83,12.8c-0.31,0.5-0.65,0.97-1.01,1.42
		c-0.35,0.45-0.73,0.88-1.11,1.29c-0.39,0.41-0.79,0.79-1.22,1.14c-0.11,0.08-0.21,0.17-0.32,0.25l-0.34,0.23
		c-0.12,0.07-0.23,0.13-0.35,0.2c-0.12,0.06-0.24,0.1-0.37,0.15l0.16-0.13c0.05-0.04,0.11-0.08,0.16-0.12
		c0.1-0.09,0.21-0.18,0.31-0.27l0.3-0.28l0.29-0.29c0.39-0.4,0.77-0.79,1.15-1.2c0.38-0.4,0.76-0.81,1.15-1.21
		C11.03,13.58,11.43,13.18,11.83,12.8z M7.07,18.43c0,0,4.54-3.39,5.77-4.53C11.71,15.52,8.77,17.67,7.07,18.43z M8.63,19.04
		c-0.19-0.14,5.36-4.2,5.36-4.2C11.31,17.91,8.81,19.18,8.63,19.04z M25.42,1.15c0.12-0.08,0.59-0.14,0.73,0
		c0.14,0.14-0.14,0.92-0.69,0.56C25.27,1.58,25.21,1.28,25.42,1.15z M29.6,6.47c0.02,0.44,0.01,0.89-0.03,1.33
		c-0.05,0.44-0.13,0.88-0.26,1.31c-0.13,0.43-0.3,0.84-0.5,1.23c-0.2,0.39-0.42,0.77-0.67,1.14c0.21-0.39,0.42-0.78,0.59-1.18
		c0.17-0.4,0.32-0.81,0.43-1.23c0.13-0.48,0.2-0.97,0.22-1.46c-0.02,0.09-0.03,0.18-0.05,0.27c-0.1,0.46-0.23,0.92-0.4,1.36
		c-0.04,0.11-0.08,0.22-0.13,0.33c-0.05,0.11-0.09,0.22-0.14,0.33c-0.1,0.21-0.21,0.43-0.32,0.63c-0.23,0.41-0.49,0.81-0.8,1.16
		c0.24-0.41,0.45-0.82,0.65-1.24c0.1-0.21,0.2-0.42,0.28-0.64c0.05-0.11,0.09-0.21,0.13-0.32c0.04-0.11,0.08-0.22,0.12-0.33
		l0.06-0.16l0.06-0.16l0.06-0.16l0.05-0.17c0.04-0.11,0.07-0.22,0.11-0.33c0.03-0.11,0.07-0.22,0.1-0.33
		c0.02-0.06,0.03-0.12,0.05-0.17c-0.07,0.18-0.13,0.37-0.21,0.55c-0.22,0.56-0.47,1.11-0.75,1.64c-0.28,0.53-0.58,1.06-0.92,1.55
		c-0.17,0.25-0.35,0.49-0.53,0.73c-0.18,0.24-0.38,0.47-0.58,0.69c0.09-0.12,0.18-0.24,0.27-0.36l0.13-0.18l0.13-0.18
		c0.17-0.25,0.33-0.5,0.48-0.75c0.31-0.51,0.59-1.04,0.85-1.57c0.13-0.27,0.25-0.54,0.37-0.81c0.12-0.27,0.23-0.55,0.34-0.83
		c0.21-0.56,0.42-1.12,0.58-1.69l0.18-0.63L29.6,6.47z M28.29,5.25c0.01,0.15,0.01,0.3,0.01,0.45c-0.03-0.3-0.08-0.59-0.13-0.89
		c-0.06-0.29-0.12-0.58-0.2-0.87C27.89,3.66,27.8,3.37,27.7,3.1c-0.01-0.02-0.02-0.04-0.02-0.06c0.1,0.48,0.2,0.96,0.27,1.44
		c0.06,0.38,0.1,0.76,0.12,1.15c0.01,0.19,0.01,0.39,0.01,0.58c-0.01,0.19-0.02,0.39-0.04,0.58l-0.08,0.73l-0.1-0.73
		c-0.06-0.47-0.12-0.93-0.21-1.39c-0.03-0.17-0.07-0.33-0.12-0.5c0.09,0.58,0.16,1.17,0.17,1.77c0.01,0.44-0.02,0.89-0.08,1.33
		c-0.06,0.44-0.16,0.88-0.29,1.3l-0.23,0.71l0.07-0.74c0.03-0.32,0.06-0.64,0.07-0.95c0.02-0.32,0.02-0.64,0.03-0.96
		c0.01-0.32,0-0.64-0.01-0.96c-0.01-0.32-0.02-0.64-0.04-0.96c0.05,0.32,0.08,0.64,0.1,0.96c0.03,0.32,0.04,0.64,0.05,0.96
		c0.01,0.16,0.01,0.32,0.01,0.48c0,0.16,0,0.32-0.01,0.48c0,0.03,0,0.05,0,0.08c0.03-0.14,0.05-0.28,0.07-0.43
		c0.06-0.43,0.08-0.87,0.08-1.3c-0.01-0.87-0.14-1.74-0.31-2.61L27.1,3.48l0.27,0.53c0.22,0.43,0.35,0.89,0.45,1.35
		c0.03,0.12,0.05,0.25,0.07,0.37c0-0.03,0-0.07,0-0.1c-0.02-0.38-0.07-0.75-0.12-1.13c-0.06-0.37-0.13-0.75-0.2-1.12
		c-0.07-0.37-0.16-0.74-0.24-1.12l-0.14-0.64l0.31,0.57c0.14,0.27,0.27,0.55,0.37,0.83c0.1,0.28,0.19,0.58,0.25,0.87
		c0.07,0.29,0.12,0.59,0.15,0.89C28.27,4.95,28.29,5.1,28.29,5.25z M25.78,0.75c0.08,0.01,0.17,0.03,0.24,0.06
		c0.08,0.03,0.15,0.08,0.2,0.14c-0.08-0.02-0.16-0.04-0.23-0.05c-0.07-0.01-0.15-0.02-0.22-0.03c-0.07-0.01-0.15-0.01-0.22,0
		c-0.08,0.01-0.15,0.02-0.23,0.03c0.06-0.06,0.13-0.1,0.21-0.13C25.61,0.75,25.69,0.74,25.78,0.75z M24.19,0.47
		c0.14-0.12,0.3-0.21,0.49-0.24c0.19-0.04,0.4-0.03,0.62,0.02c0.23,0.05,0.47,0.13,0.73,0.28l-0.58,0.04
		c-0.19,0.01-0.37,0.04-0.55,0.07c-0.18,0.03-0.35,0.08-0.52,0.14C24.21,0.83,24.07,0.92,23.9,1C23.95,0.77,24.05,0.59,24.19,0.47z
		 M21.26,1.52c-0.29-0.04-0.83-0.16-1.04-0.05c0,0,0,0,0,0c0.33-0.27,0.67-0.44,1.13-0.44c0.6-0.01,1.83,0.26,1.85,0.26l0.06,0.01
		l0,0c0.32,0.08,0.95,0.32,1.24,0.6c-0.19-0.11-0.98-0.47-1.5-0.56c0,0,1.3,0.98,1.43,1.13C23.32,2.01,22.19,1.63,21.26,1.52z
		 M21.85,6.51c0.25-0.21,0.51-0.39,0.77-0.57c0.27-0.18,0.53-0.35,0.78-0.54c0.25-0.19,0.47-0.4,0.63-0.64l0,0
		c0.07-0.12,0.13-0.24,0.19-0.36c0.03-0.08,0.07-0.15,0.1-0.23c0.03-0.08,0.06-0.15,0.1-0.23c0.03-0.08,0.06-0.16,0.1-0.23
		c0.03-0.08,0.07-0.16,0.11-0.24c0.04,0.2,0.06,0.41,0.06,0.61c0,0.21-0.01,0.41-0.03,0.61c-0.03,0.2-0.07,0.41-0.13,0.6
		c-0.06,0.2-0.14,0.39-0.26,0.56c0.06-0.2,0.11-0.39,0.14-0.59c0.04-0.2,0.07-0.4,0.09-0.59c0.01-0.06,0.02-0.11,0.02-0.17
		c0,0.01-0.01,0.02-0.01,0.03c-0.06,0.21-0.14,0.42-0.23,0.62c-0.09,0.2-0.2,0.39-0.33,0.57c-0.13,0.18-0.28,0.35-0.46,0.47
		c0.14-0.17,0.26-0.35,0.36-0.53c0.05-0.09,0.11-0.19,0.15-0.28c0.05-0.1,0.1-0.19,0.14-0.29C24.17,5.04,24.18,5,24.2,4.97
		c-0.02,0.04-0.05,0.07-0.07,0.1c-0.08,0.11-0.16,0.21-0.24,0.31l-0.08,0.1l-0.09,0.1c-0.06,0.07-0.12,0.13-0.18,0.19
		c-0.12,0.12-0.25,0.24-0.37,0.36c-0.25,0.23-0.51,0.46-0.77,0.68c0.21-0.27,0.44-0.53,0.66-0.78l0.17-0.19
		c0.02-0.03,0.05-0.06,0.07-0.08c-0.19,0.12-0.39,0.23-0.59,0.34c-0.28,0.16-0.55,0.32-0.81,0.5c-0.26,0.18-0.5,0.39-0.7,0.64
		C21.38,6.95,21.6,6.71,21.85,6.51z M15.49,12.9c0.2-0.03,0.4-0.08,0.59-0.14c0.39-0.11,0.77-0.27,1.15-0.44
		c0.38-0.17,0.75-0.35,1.12-0.55c0.37-0.2,0.73-0.41,1.09-0.62c0.72-0.43,1.43-0.89,2.15-1.34c0.71-0.46,1.42-0.92,2.12-1.38
		c-0.67,0.52-1.35,1.02-2.03,1.52c-0.69,0.5-1.38,0.97-2.09,1.44c-0.71,0.46-1.43,0.92-2.21,1.27c-0.39,0.18-0.8,0.33-1.23,0.42
		c-0.21,0.05-0.43,0.07-0.66,0.06c-0.22-0.01-0.45-0.07-0.63-0.2C15.09,12.95,15.29,12.93,15.49,12.9z M14.84,12.74
		c-0.09,0.01-0.18,0.01-0.27,0.01c-0.09-0.01-0.18-0.01-0.27-0.03c-0.18-0.03-0.36-0.1-0.49-0.22c0.17,0.04,0.34,0.03,0.5,0.02
		c0.08,0,0.16-0.02,0.24-0.03l0.12-0.02c0.04-0.01,0.08-0.01,0.12-0.02c0.32-0.07,0.63-0.17,0.94-0.29
		c0.62-0.24,1.22-0.54,1.81-0.86c0.3-0.16,0.59-0.33,0.88-0.5c0.29-0.17,0.58-0.35,0.87-0.52c0.29-0.18,0.57-0.36,0.86-0.55
		c0.29-0.18,0.57-0.38,0.85-0.57c-0.51,0.45-1.05,0.87-1.6,1.28c-0.55,0.4-1.12,0.78-1.7,1.14c-0.59,0.35-1.19,0.69-1.84,0.93
		C15.53,12.6,15.19,12.69,14.84,12.74z M18.41,9.41c-0.29,0.24-0.59,0.46-0.89,0.69c-0.3,0.22-0.61,0.44-0.92,0.65
		c-0.31,0.21-0.63,0.41-0.96,0.59c0.27-0.26,0.56-0.5,0.85-0.74c0.29-0.24,0.59-0.46,0.89-0.69c0.3-0.22,0.61-0.44,0.92-0.65
		c0.31-0.21,0.63-0.41,0.96-0.59C18.99,8.93,18.7,9.17,18.41,9.41z M17.54,8.81c-0.24,0.18-0.49,0.35-0.73,0.53
		c-0.24,0.18-0.48,0.36-0.72,0.54c-0.24,0.18-0.48,0.36-0.71,0.55c-0.24,0.18-0.47,0.37-0.7,0.56c-0.23,0.19-0.46,0.38-0.69,0.58
		c-0.11,0.1-0.22,0.2-0.33,0.3c-0.11,0.1-0.21,0.21-0.3,0.33c0.07-0.14,0.16-0.26,0.26-0.37c0.1-0.12,0.2-0.23,0.3-0.34
		c0.21-0.22,0.42-0.43,0.65-0.63c0.22-0.21,0.45-0.4,0.68-0.6c0.23-0.19,0.47-0.38,0.71-0.56c0.48-0.36,0.97-0.71,1.48-1.04
		c0.51-0.32,1.03-0.63,1.58-0.88C18.52,8.12,18.03,8.46,17.54,8.81z M12.16,12.21c0.21-0.33,0.48-0.62,0.77-0.89
		c0.29-0.27,0.59-0.51,0.91-0.75c0.31-0.23,0.64-0.45,0.97-0.66c0.33-0.21,0.67-0.41,1.02-0.58c-0.3,0.26-0.6,0.49-0.91,0.73
		c-0.31,0.23-0.62,0.47-0.93,0.7c-0.31,0.23-0.62,0.46-0.93,0.7C12.74,11.69,12.44,11.93,12.16,12.21z M14.4,14.11l-0.3,0
		c-0.1,0-0.2-0.01-0.3-0.02c-0.1-0.01-0.2-0.02-0.3-0.03l0.15-0.01c0.05,0,0.1,0,0.15-0.01c0.1-0.01,0.2-0.01,0.29-0.02l0.29-0.03
		c0.1-0.01,0.19-0.02,0.29-0.03l1.17-0.12c0.39-0.04,0.78-0.08,1.17-0.11c0.39-0.03,0.79-0.06,1.19-0.08
		c-0.38,0.09-0.76,0.16-1.15,0.22c-0.39,0.06-0.78,0.11-1.17,0.15c-0.39,0.04-0.79,0.07-1.19,0.08C14.6,14.1,14.5,14.11,14.4,14.11z
		 M18.54,14.2c-0.39,0.06-0.78,0.11-1.17,0.15c-0.39,0.04-0.79,0.07-1.19,0.08c-0.1,0-0.2,0.01-0.3,0.01l-0.3,0
		c-0.1,0-0.2-0.01-0.3-0.02c-0.1-0.01-0.2-0.02-0.3-0.03l0.15-0.01c0.05,0,0.1,0,0.15-0.01c0.1-0.01,0.2-0.01,0.29-0.02l0.29-0.03
		c0.1-0.01,0.19-0.02,0.29-0.03l1.17-0.12c0.39-0.04,0.78-0.08,1.17-0.11c0.39-0.03,0.79-0.06,1.19-0.08
		C19.31,14.07,18.92,14.14,18.54,14.2z M17.61,15.3c-0.04-0.05-0.07-0.11-0.1-0.17c-0.03-0.06-0.06-0.12-0.09-0.18
		c-0.03-0.06-0.05-0.12-0.08-0.19c0.07,0.03,0.12,0.08,0.17,0.13c0.05,0.05,0.09,0.11,0.12,0.17c0.03,0.06,0.06,0.12,0.08,0.19
		c0.02,0.07,0.03,0.13,0.03,0.21C17.69,15.4,17.64,15.35,17.61,15.3z M18.1,15.83c-0.07-0.15-0.11-0.3-0.15-0.44l-0.06-0.22
		c-0.02-0.07-0.04-0.14-0.07-0.22c0.07,0.04,0.13,0.11,0.17,0.18c0.04,0.07,0.07,0.15,0.09,0.22c0.02,0.08,0.03,0.16,0.04,0.24
		C18.13,15.66,18.12,15.74,18.1,15.83z M18.49,16.38c-0.05-0.07-0.08-0.14-0.1-0.22c-0.02-0.08-0.04-0.16-0.04-0.24
		c-0.01-0.08,0-0.16,0.01-0.24c0.02-0.08,0.05-0.16,0.1-0.22c0,0.08,0,0.16,0.01,0.23l0.02,0.22C18.5,16.06,18.51,16.22,18.49,16.38
		z M18.93,16.33c-0.05-0.06-0.07-0.13-0.1-0.2c-0.02-0.07-0.04-0.14-0.04-0.21c0-0.07,0-0.15,0.01-0.22c0.02-0.07,0.04-0.15,0.1-0.2
		c0,0.08,0.01,0.14,0.01,0.21l0.02,0.2C18.94,16.05,18.95,16.18,18.93,16.33z M19.08,17.45 M19.19,17.5
		c0.07,0.21,0.08,0.4,0.16,0.67c0.09,0.27,0.14,0.06,0.21,0.27c0.07,0.21,0.01,0.4,0.09,0.49c0.08,0.09,0.19,0.24,0.14,0.53
		c-0.05,0.29-0.12,0.11-0.12,0.03c-0.01-0.08-0.05-0.36-0.12-0.24c-0.07,0.13-0.17-0.25-0.16-0.44s-0.09-0.49-0.13-0.43
		c-0.04,0.05-0.07-0.11-0.11-0.38c-0.03-0.27-0.11-0.34-0.16-0.49c-0.05-0.14-0.05-0.33,0.01-0.32
		C19.07,17.22,19.13,17.29,19.19,17.5z M19.89,14.84c0.18-0.33,0.37-0.63,0.56-0.94l0.57-0.91c0.19-0.3,0.37-0.61,0.55-0.91
		c0.18-0.31,0.35-0.62,0.54-0.94c-0.03,0.37-0.12,0.74-0.25,1.08c-0.13,0.34-0.3,0.68-0.5,0.99c-0.2,0.31-0.42,0.61-0.66,0.89
		C20.46,14.37,20.2,14.63,19.89,14.84z M21.66,16.61c0.02,0.04,0.06,0.17,0.08,0.23c0.03,0.06,0.16,0.13,0.16,0.18
		c0,0.05-0.04,0.06-0.02,0.1c0.01,0.04,0.1,0.05,0.11,0.09c0,0.05-0.03,0.04-0.02,0.06c0.01,0.02,0.12,0.06,0.12,0.09
		c0,0.03-0.06,0.03-0.05,0.06s0.17,0.09,0.17,0.12c0,0.03-0.07,0.04-0.05,0.07c0.02,0.03,0.17,0.08,0.19,0.13
		c0.01,0.05-0.05,0.04-0.03,0.07c0.02,0.02,0.2,0.07,0.21,0.1c0.01,0.04-0.07,0.02-0.04,0.06c0.03,0.04,0.09-0.02,0.12,0.05
		c0.03,0.07-0.02,0.09-0.01,0.1c0.02,0.01,0.21,0.01,0.22,0.06c0.01,0.05-0.05,0.06-0.03,0.08c0.02,0.02,0.16,0.02,0.17,0.05
		c0.01,0.03-0.04,0.02-0.02,0.05c0.03,0.03,0.12,0.03,0.15,0.07c0.03,0.05,0.12,0.03,0.17,0.07s0.07,0.03,0.07,0.08
		c0.01,0.05-0.11,0.02-0.11,0.09c-0.03,0-0.02-0.1-0.06-0.13c-0.04-0.03-0.18,0.02-0.2-0.02c-0.02-0.03-0.01-0.07-0.03-0.09
		c-0.02-0.02-0.06,0.01-0.09-0.01c-0.03-0.02-0.08-0.13-0.13-0.08c-0.05,0.05,0,0.12,0.08,0.14c0.08,0.02,0.01,0.09,0.03,0.12
		c0.01,0.02,0.1,0.04,0.13,0.09c0.03,0.05-0.04,0.05-0.03,0.1c0.01,0.05,0.1,0.06,0.11,0.09c0,0.03-0.21,0-0.21-0.05
		c0.01-0.05,0.01-0.09-0.05-0.15c-0.06-0.05,0.01-0.06-0.04-0.13c-0.05-0.07-0.01-0.12-0.12-0.15c-0.11-0.04-0.05-0.12-0.08-0.16
		c-0.03-0.04-0.12,0.04-0.15,0c-0.03-0.04,0.06-0.12,0.02-0.16c-0.04-0.04-0.1,0.06-0.12,0.01c-0.02-0.05,0-0.14-0.01-0.16
		c-0.02-0.03-0.12,0.07-0.13,0.04c-0.02-0.03,0.03-0.16-0.01-0.22c-0.04-0.06-0.1,0.04-0.12-0.01c-0.02-0.05,0.02-0.21,0-0.24
		c-0.02-0.04-0.06,0-0.07-0.03c-0.01-0.03,0.01-0.14,0-0.16c-0.01-0.02-0.06,0.01-0.07-0.02c-0.01-0.02,0-0.13-0.02-0.17
		c-0.02-0.04-0.21-0.21-0.2-0.27c0.01-0.06,0.02-0.07,0.02-0.1c0-0.03-0.13-0.06-0.12-0.14C21.55,16.55,21.64,16.58,21.66,16.61z
		 M23.37,13.42c0.29-0.18,0.58-0.36,0.87-0.55c0.29-0.19,0.57-0.38,0.85-0.58c0.28-0.2,0.56-0.4,0.84-0.62
		c-0.18,0.31-0.42,0.57-0.68,0.81c-0.26,0.24-0.54,0.46-0.83,0.65c-0.29,0.19-0.6,0.37-0.93,0.51c-0.32,0.14-0.66,0.26-1.01,0.3
		C22.78,13.77,23.08,13.6,23.37,13.42z"/>
</g>
</svg>
